<?xml version="1.0" encoding="utf-8"?>
<!-- Generator: Adobe Illustrator 20.1.0, SVG Export Plug-In . SVG Version: 6.00 Build 0)  -->
<svg version="1.1" id="EAA_med_bue_og_cirkler" xmlns="http://www.w3.org/2000/svg" xmlns:xlink="http://www.w3.org/1999/xlink"
	 x="0px" y="0px" viewBox="0 0 413.9 113.4" style="enable-background:new 0 0 413.9 113.4;" xml:space="preserve">
<style type="text/css">
	.st0{fill:#7AAEB4;}
	.st1{fill:#7C8388;}
</style>
<g>
	<path class="st0" d="M239.1,110.3c0.4,0,0.8,0.4,0.8,0.8l0,0c0,0.4-0.4,0.8-0.8,0.8l0,0c0,0,0,0,0,0l0,0c-0.4,0-0.8-0.4-0.8-0.8
		l0,0C238.3,110.6,238.7,110.3,239.1,110.3L239.1,110.3z M234.3,111.9c-0.4,0-0.8-0.4-0.8-0.8l0,0c0-0.4,0.4-0.8,0.8-0.8l0,0
		c0.4,0,0.8,0.4,0.8,0.8l0,0C235.1,111.5,234.8,111.9,234.3,111.9L234.3,111.9C234.3,111.9,234.3,111.9,234.3,111.9L234.3,111.9z
		 M243.1,111c0-0.4,0.3-0.8,0.8-0.8l0,0h0c0.4,0,0.8,0.3,0.8,0.8l0,0c0,0.4-0.3,0.8-0.8,0.8l0,0c0,0,0,0,0,0l0,0c0,0,0,0,0,0l0,0
		C243.5,111.8,243.1,111.4,243.1,111L243.1,111z M229.5,111.8c-0.4,0-0.8-0.4-0.8-0.8l0,0c0-0.4,0.4-0.8,0.8-0.8l0,0
		c0.4,0,0.8,0.4,0.8,0.8l0,0C230.3,111.4,230,111.8,229.5,111.8L229.5,111.8C229.5,111.8,229.5,111.8,229.5,111.8L229.5,111.8z
		 M248.7,110c0.4,0,0.8,0.3,0.8,0.8l0,0c0,0.4-0.3,0.8-0.8,0.8l0,0c0,0,0,0,0,0l0,0c0,0,0,0,0,0l0,0c-0.4,0-0.8-0.3-0.8-0.8l0,0
		C247.9,110.4,248.3,110.1,248.7,110L248.7,110L248.7,110L248.7,110L248.7,110z M224.7,111.6c-0.4,0-0.8-0.4-0.8-0.8l0,0
		c0-0.4,0.4-0.8,0.8-0.8l0,0h0c0.4,0,0.8,0.4,0.8,0.8l0,0C225.5,111.3,225.2,111.6,224.7,111.6L224.7,111.6
		C224.7,111.6,224.7,111.6,224.7,111.6L224.7,111.6z M253.5,109.8c0.4,0,0.8,0.3,0.8,0.8l0,0c0,0.4-0.3,0.8-0.8,0.8l0,0c0,0,0,0,0,0
		l0,0c-0.4,0-0.8-0.3-0.8-0.8l0,0C252.7,110.2,253,109.8,253.5,109.8L253.5,109.8z M219.9,111.4c-0.4,0-0.8-0.4-0.8-0.8l0,0
		c0-0.4,0.4-0.8,0.8-0.8l0,0c0.4,0,0.8,0.4,0.8,0.8l0,0C220.7,111.1,220.4,111.4,219.9,111.4L219.9,111.4
		C219.9,111.4,219.9,111.4,219.9,111.4L219.9,111.4z M257.5,110.4c0-0.4,0.3-0.8,0.7-0.9l0,0c0.4,0,0.8,0.3,0.9,0.7l0,0
		c0,0.4-0.3,0.8-0.7,0.9l0,0c0,0,0,0-0.1,0l0,0C257.9,111.1,257.5,110.8,257.5,110.4L257.5,110.4z M215.1,111.1
		c-0.4,0-0.8-0.4-0.7-0.9l0,0c0-0.4,0.4-0.8,0.9-0.7l0,0h0c0.4,0,0.8,0.4,0.7,0.9l0,0C215.9,110.8,215.6,111.1,215.1,111.1
		L215.1,111.1C215.1,111.1,215.1,111.1,215.1,111.1L215.1,111.1z M210.3,110.7c-0.4,0-0.8-0.4-0.7-0.9l0,0c0-0.4,0.4-0.8,0.9-0.7
		l0,0c0.4,0,0.8,0.4,0.7,0.9l0,0C211.1,110.4,210.8,110.7,210.3,110.7L210.3,110.7C210.3,110.7,210.3,110.7,210.3,110.7L210.3,110.7
		z M262.3,110c0-0.4,0.3-0.8,0.7-0.9l0,0c0.4,0,0.8,0.3,0.9,0.7l0,0c0,0.4-0.3,0.8-0.7,0.9l0,0c0,0,0,0-0.1,0l0,0
		C262.7,110.7,262.3,110.4,262.3,110L262.3,110z M205.5,110.3c-0.4,0-0.8-0.4-0.7-0.9l0,0c0-0.4,0.4-0.8,0.9-0.7l0,0
		c0.4,0,0.8,0.4,0.7,0.9l0,0C206.3,110,206,110.3,205.5,110.3L205.5,110.3C205.6,110.3,205.5,110.3,205.5,110.3L205.5,110.3z
		 M267.1,109.5c-0.1-0.4,0.3-0.8,0.7-0.9l0,0c0.4,0,0.8,0.3,0.9,0.7l0,0c0,0.4-0.3,0.8-0.7,0.9l0,0c0,0-0.1,0-0.1,0l0,0
		C267.5,110.2,267.1,109.9,267.1,109.5L267.1,109.5z M200.7,109.8c-0.4,0-0.8-0.4-0.7-0.9l0,0c0.1-0.4,0.4-0.8,0.9-0.7l0,0
		c0.4,0,0.8,0.4,0.7,0.9l0,0C201.6,109.5,201.2,109.8,200.7,109.8L200.7,109.8C200.8,109.8,200.8,109.8,200.7,109.8L200.7,109.8z
		 M271.9,109c-0.1-0.4,0.3-0.8,0.7-0.9l0,0l0,0c0.4-0.1,0.8,0.3,0.9,0.7l0,0c0.1,0.4-0.3,0.8-0.7,0.9l0,0c0,0,0,0,0,0l0,0
		c0,0-0.1,0-0.1,0l0,0C272.2,109.7,271.9,109.4,271.9,109L271.9,109z M196,109.2c-0.4-0.1-0.7-0.5-0.7-0.9l0,0
		c0.1-0.4,0.5-0.7,0.9-0.7l0,0v0c0.4,0.1,0.7,0.5,0.7,0.9l0,0C196.8,108.9,196.5,109.2,196,109.2L196,109.2
		C196,109.2,196,109.2,196,109.2L196,109.2z M276.6,108.3c-0.1-0.4,0.2-0.8,0.7-0.9l0,0v0c0.4-0.1,0.8,0.2,0.9,0.7l0,0
		c0.1,0.4-0.2,0.8-0.7,0.9l0,0v0c0,0-0.1,0-0.1,0l0,0C277,109,276.7,108.7,276.6,108.3L276.6,108.3z M277.5,109L277.5,109L277.5,109
		L277.5,109z M191.2,108.6c-0.4-0.1-0.7-0.5-0.7-0.9l0,0c0.1-0.4,0.5-0.7,0.9-0.7l0,0h0c0.4,0.1,0.7,0.5,0.7,0.9l0,0
		c-0.1,0.4-0.4,0.7-0.8,0.7l0,0C191.3,108.6,191.2,108.6,191.2,108.6L191.2,108.6z M281.4,107.6c-0.1-0.4,0.2-0.8,0.7-0.9l0,0
		c0.4-0.1,0.8,0.2,0.9,0.7l0,0c0.1,0.4-0.2,0.8-0.7,0.9l0,0c0,0-0.1,0-0.1,0l0,0C281.8,108.3,281.4,108,281.4,107.6L281.4,107.6z
		 M186.5,107.9c-0.4-0.1-0.7-0.5-0.7-0.9l0,0c0.1-0.4,0.5-0.7,0.9-0.7l0,0c0.4,0.1,0.7,0.5,0.7,0.9l0,0c-0.1,0.4-0.4,0.7-0.8,0.7
		l0,0C186.5,107.9,186.5,107.9,186.5,107.9L186.5,107.9z M286.1,106.8c-0.1-0.4,0.2-0.9,0.6-0.9l0,0v0c0.4-0.1,0.9,0.2,0.9,0.6l0,0
		c0.1,0.4-0.2,0.9-0.6,0.9l0,0c0,0,0,0,0,0l0,0c0,0-0.1,0-0.1,0l0,0C286.5,107.4,286.2,107.1,286.1,106.8L286.1,106.8z M181.7,107.1
		c-0.4-0.1-0.7-0.5-0.7-0.9l0,0c0.1-0.4,0.5-0.7,0.9-0.7l0,0l0,0c0.4,0.1,0.7,0.5,0.7,0.9l0,0c-0.1,0.4-0.4,0.7-0.8,0.7l0,0
		C181.8,107.1,181.8,107.1,181.7,107.1L181.7,107.1z M291.4,104.9c0.4-0.1,0.9,0.2,0.9,0.6l0,0c0.1,0.4-0.2,0.9-0.6,0.9l0,0
		c-0.1,0-0.1,0-0.2,0l0,0c-0.4,0-0.7-0.3-0.8-0.6l0,0C290.7,105.4,291,105,291.4,104.9L291.4,104.9z M177,106.3
		C177,106.3,177,106.3,177,106.3L177,106.3c-0.4-0.1-0.7-0.5-0.6-0.9l0,0c0.1-0.4,0.5-0.7,0.9-0.6l0,0c0.4,0.1,0.7,0.5,0.6,0.9l0,0
		c-0.1,0.4-0.4,0.7-0.8,0.7l0,0C177.1,106.3,177,106.3,177,106.3L177,106.3z M295.5,104.8c-0.1-0.4,0.2-0.9,0.6-1l0,0h0
		c0.4-0.1,0.9,0.2,1,0.6l0,0c0.1,0.4-0.2,0.9-0.6,1l0,0c-0.1,0-0.1,0-0.2,0l0,0C295.9,105.4,295.6,105.2,295.5,104.8L295.5,104.8z
		 M172.3,105.4c-0.4-0.1-0.7-0.5-0.6-0.9l0,0c0.1-0.4,0.5-0.7,0.9-0.6l0,0c0.4,0.1,0.7,0.5,0.6,0.9l0,0c-0.1,0.4-0.4,0.6-0.8,0.6
		l0,0C172.4,105.4,172.3,105.4,172.3,105.4L172.3,105.4z M167.6,104.4c-0.4-0.1-0.7-0.5-0.6-0.9l0,0c0.1-0.4,0.5-0.7,0.9-0.6l0,0
		c0.4,0.1,0.7,0.5,0.6,0.9l0,0c-0.1,0.4-0.4,0.6-0.8,0.6l0,0C167.7,104.4,167.6,104.4,167.6,104.4L167.6,104.4z M300.1,103.7
		c-0.1-0.4,0.1-0.9,0.6-1l0,0c0.4-0.1,0.9,0.1,1,0.6l0,0c0.1,0.4-0.1,0.9-0.6,1l0,0c-0.1,0-0.1,0-0.2,0l0,0
		C300.6,104.3,300.2,104,300.1,103.7L300.1,103.7z M162.9,103.4c-0.4-0.1-0.7-0.5-0.6-1l0,0c0.1-0.4,0.5-0.7,1-0.6l0,0h0
		c0.4,0.1,0.7,0.5,0.6,1l0,0c-0.1,0.4-0.4,0.6-0.8,0.6l0,0C163,103.4,162.9,103.4,162.9,103.4L162.9,103.4z M304.8,102.4
		c-0.1-0.4,0.1-0.9,0.5-1l0,0l0,0c0.4-0.1,0.9,0.1,1,0.6l0,0c0.1,0.4-0.1,0.9-0.6,1l0,0c0,0,0,0,0,0l0,0c-0.1,0-0.1,0-0.2,0l0,0
		C305.2,103,304.9,102.8,304.8,102.4L304.8,102.4z M158.2,102.3c-0.4-0.1-0.7-0.5-0.6-1l0,0c0.1-0.4,0.5-0.7,1-0.6l0,0
		c0.4,0.1,0.7,0.5,0.6,1l0,0c-0.1,0.4-0.4,0.6-0.8,0.6l0,0C158.3,102.3,158.2,102.3,158.2,102.3L158.2,102.3z M309.4,101.1
		c-0.1-0.4,0.1-0.9,0.5-1l0,0h0c0.4-0.1,0.9,0.1,1,0.5l0,0c0.1,0.4-0.1,0.9-0.5,1l0,0c0,0,0,0,0,0l0,0c-0.1,0-0.2,0-0.2,0l0,0
		C309.8,101.6,309.5,101.4,309.4,101.1L309.4,101.1z M153.5,101.1c-0.4-0.1-0.7-0.5-0.6-1l0,0c0.1-0.4,0.5-0.7,1-0.6l0,0
		c0.4,0.1,0.7,0.5,0.6,1l0,0c-0.1,0.4-0.4,0.6-0.8,0.6l0,0C153.7,101.1,153.6,101.1,153.5,101.1L153.5,101.1z M315,100.1
		c-0.1,0-0.2,0-0.3,0l0,0c-0.3,0-0.6-0.2-0.8-0.5l0,0c-0.1-0.4,0.1-0.9,0.5-1l0,0l0,0c0.4-0.1,0.9,0.1,1,0.5l0,0
		C315.6,99.5,315.4,99.9,315,100.1L315,100.1L315,100.1z M148.9,99.9c-0.4-0.1-0.7-0.6-0.6-1l0,0c0.1-0.4,0.6-0.7,1-0.6l0,0
		c0.4,0.1,0.7,0.6,0.6,1l0,0c-0.1,0.4-0.4,0.6-0.8,0.6l0,0C149,99.9,148.9,99.9,148.9,99.9L148.9,99.9z M144.2,98.6
		c-0.4-0.1-0.7-0.6-0.5-1l0,0c0.1-0.4,0.6-0.7,1-0.5l0,0c0.4,0.1,0.7,0.6,0.5,1l0,0c-0.1,0.3-0.4,0.6-0.8,0.6l0,0
		C144.4,98.6,144.3,98.6,144.2,98.6L144.2,98.6z M318.5,98c-0.2-0.4,0.1-0.9,0.5-1l0,0h0c0.4-0.2,0.9,0.1,1,0.5l0,0
		c0.2,0.4-0.1,0.9-0.5,1l0,0c-0.1,0-0.2,0.1-0.3,0.1l0,0C318.9,98.5,318.6,98.3,318.5,98L318.5,98z M139.6,97.2
		c-0.4-0.1-0.7-0.6-0.5-1l0,0c0.1-0.4,0.6-0.7,1-0.5l0,0c0.4,0.1,0.7,0.6,0.5,1l0,0c-0.1,0.3-0.4,0.6-0.8,0.6l0,0
		C139.8,97.2,139.7,97.2,139.6,97.2L139.6,97.2z M323,96.3c-0.2-0.4,0-0.9,0.4-1l0,0v0c0.4-0.2,0.9,0,1,0.4l0,0c0.2,0.4,0,0.9-0.4,1
		l0,0l0,0c-0.1,0-0.2,0.1-0.3,0.1l0,0C323.4,96.7,323.1,96.6,323,96.3L323,96.3z M324,96.7L324,96.7L324,96.7L324,96.7z M135,95.8
		c-0.4-0.1-0.7-0.6-0.5-1l0,0c0.1-0.4,0.6-0.7,1-0.5l0,0v0c0.4,0.1,0.7,0.6,0.5,1l0,0c-0.1,0.3-0.4,0.6-0.8,0.6l0,0
		C135.2,95.8,135.1,95.8,135,95.8L135,95.8z M327.4,94.4c-0.2-0.4,0-0.9,0.4-1.1l0,0v0c0.4-0.2,0.9,0,1.1,0.4l0,0
		c0.2,0.4,0,0.9-0.4,1.1l0,0c-0.1,0-0.2,0.1-0.3,0.1l0,0C327.8,94.9,327.5,94.7,327.4,94.4L327.4,94.4z M130.4,94.3
		c-0.4-0.1-0.6-0.6-0.5-1l0,0c0.1-0.4,0.6-0.6,1-0.5l0,0c0.4,0.1,0.6,0.6,0.5,1l0,0c-0.1,0.3-0.4,0.5-0.8,0.5l0,0
		C130.6,94.3,130.5,94.3,130.4,94.3L130.4,94.3z M331.7,92.4c-0.2-0.4,0-0.9,0.4-1.1l0,0c0.4-0.2,0.9,0,1.1,0.4l0,0
		c0.2,0.4,0,0.9-0.4,1.1l0,0c-0.1,0.1-0.2,0.1-0.3,0.1l0,0C332.2,92.8,331.9,92.7,331.7,92.4L331.7,92.4z M125.9,92.7
		c-0.4-0.1-0.6-0.6-0.5-1l0,0c0.1-0.4,0.6-0.6,1-0.5l0,0c0.4,0.1,0.6,0.6,0.5,1l0,0c-0.1,0.3-0.4,0.5-0.8,0.5l0,0
		C126.1,92.8,126,92.7,125.9,92.7L125.9,92.7z M121.3,91.1c-0.4-0.2-0.6-0.6-0.5-1l0,0c0.2-0.4,0.6-0.6,1-0.5l0,0
		c0.4,0.2,0.6,0.6,0.5,1l0,0c-0.1,0.3-0.4,0.5-0.8,0.5l0,0C121.5,91.1,121.4,91.1,121.3,91.1L121.3,91.1z M336,90.3
		c-0.2-0.4-0.1-0.9,0.3-1.1l0,0l0,0c0.4-0.2,0.9-0.1,1.1,0.3l0,0c0.2,0.4,0.1,0.9-0.3,1.1l0,0c0,0,0,0,0,0l0,0
		c-0.1,0.1-0.2,0.1-0.4,0.1l0,0C336.5,90.7,336.2,90.5,336,90.3L336,90.3z M116.8,89.4c-0.4-0.2-0.6-0.6-0.5-1l0,0
		c0.2-0.4,0.6-0.6,1-0.5l0,0v0c0.4,0.2,0.6,0.6,0.5,1l0,0c-0.1,0.3-0.4,0.5-0.7,0.5l0,0C117,89.4,116.9,89.4,116.8,89.4L116.8,89.4z
		 M112.3,87.6c-0.4-0.2-0.6-0.6-0.4-1l0,0c0.2-0.4,0.6-0.6,1-0.4l0,0c0.4,0.2,0.6,0.6,0.4,1l0,0c-0.1,0.3-0.4,0.5-0.7,0.5l0,0
		C112.5,87.7,112.4,87.7,112.3,87.6L112.3,87.6z M107.9,85.8C107.9,85.8,107.9,85.8,107.9,85.8L107.9,85.8c-0.4-0.2-0.6-0.6-0.4-1
		l0,0c0.2-0.4,0.6-0.6,1-0.4l0,0h0c0.4,0.2,0.6,0.6,0.4,1l0,0c-0.1,0.3-0.4,0.5-0.7,0.5l0,0C108.1,85.8,108,85.8,107.9,85.8
		L107.9,85.8z M103.4,83.9c-0.4-0.2-0.6-0.7-0.4-1.1l0,0c0.2-0.4,0.6-0.6,1.1-0.4l0,0v0c0.4,0.2,0.6,0.6,0.4,1.1l0,0
		c-0.1,0.3-0.4,0.5-0.7,0.5l0,0C103.6,84,103.5,83.9,103.4,83.9L103.4,83.9z M99,81.9c-0.4-0.2-0.6-0.7-0.4-1.1l0,0
		c0.2-0.4,0.7-0.6,1.1-0.4l0,0c0.4,0.2,0.6,0.7,0.4,1.1l0,0c-0.1,0.3-0.4,0.5-0.7,0.5l0,0C99.2,82,99.1,82,99,81.9L99,81.9z
		 M94.7,79.9C94.7,79.9,94.7,79.9,94.7,79.9L94.7,79.9c-0.4-0.2-0.6-0.7-0.4-1.1l0,0c0.2-0.4,0.7-0.6,1.1-0.4l0,0l0,0
		c0.4,0.2,0.6,0.7,0.4,1.1l0,0c-0.1,0.3-0.4,0.5-0.7,0.5l0,0C94.9,79.9,94.8,79.9,94.7,79.9L94.7,79.9z M90.3,77.8
		C90.3,77.8,90.3,77.8,90.3,77.8L90.3,77.8c-0.4-0.2-0.6-0.7-0.4-1.1l0,0c0.2-0.4,0.7-0.6,1.1-0.4l0,0c0.4,0.2,0.6,0.7,0.4,1.1l0,0
		c-0.1,0.3-0.4,0.4-0.7,0.4l0,0C90.5,77.8,90.4,77.8,90.3,77.8L90.3,77.8z M86,75.6c-0.4-0.2-0.5-0.7-0.3-1.1l0,0
		c0.2-0.4,0.7-0.5,1.1-0.3l0,0h0c0.4,0.2,0.5,0.7,0.3,1.1l0,0c-0.1,0.3-0.4,0.4-0.7,0.4l0,0C86.2,75.7,86.1,75.6,86,75.6L86,75.6
		 M81.7,73.3c-0.4-0.2-0.5-0.7-0.3-1.1l0,0c0.2-0.4,0.7-0.5,1.1-0.3l0,0c0.4,0.2,0.5,0.7,0.3,1.1l0,0c-0.1,0.3-0.4,0.4-0.7,0.4l0,0
		C82,73.4,81.9,73.4,81.7,73.3L81.7,73.3z M77.5,71c-0.4-0.2-0.5-0.7-0.3-1.1l0,0c0.2-0.4,0.7-0.5,1.1-0.3l0,0
		c0.4,0.2,0.5,0.7,0.3,1.1l0,0c-0.1,0.3-0.4,0.4-0.7,0.4l0,0C77.8,71.1,77.6,71,77.5,71L77.5,71z M73.3,68.6
		c-0.4-0.2-0.5-0.7-0.3-1.1l0,0c0.2-0.4,0.7-0.5,1.1-0.3l0,0c0.4,0.2,0.5,0.7,0.3,1.1l0,0c-0.1,0.3-0.4,0.4-0.7,0.4l0,0
		C73.6,68.7,73.5,68.7,73.3,68.6L73.3,68.6z M69.2,66.1c-0.4-0.2-0.5-0.7-0.3-1.1l0,0c0.2-0.4,0.7-0.5,1.1-0.3l0,0
		c0.4,0.2,0.5,0.7,0.3,1.1l0,0c-0.2,0.2-0.4,0.4-0.7,0.4l0,0C69.5,66.2,69.3,66.2,69.2,66.1L69.2,66.1z M65.1,63.6
		c-0.4-0.2-0.5-0.7-0.2-1.1l0,0c0.2-0.4,0.7-0.5,1.1-0.2l0,0c0.4,0.2,0.5,0.7,0.2,1.1l0,0c-0.2,0.2-0.4,0.4-0.7,0.4l0,0
		C65.4,63.7,65.3,63.6,65.1,63.6L65.1,63.6z M61.1,60.9c-0.4-0.2-0.5-0.7-0.2-1.1l0,0c0.2-0.4,0.7-0.5,1.1-0.2l0,0
		c0.4,0.2,0.5,0.7,0.2,1.1l0,0c-0.2,0.2-0.4,0.4-0.7,0.4l0,0C61.4,61.1,61.2,61,61.1,60.9L61.1,60.9z M57.1,58.2
		c-0.4-0.3-0.5-0.8-0.2-1.1l0,0c0.3-0.4,0.7-0.5,1.1-0.2l0,0c0.4,0.3,0.5,0.7,0.2,1.1l0,0c-0.2,0.2-0.4,0.3-0.7,0.3l0,0
		C57.4,58.4,57.2,58.3,57.1,58.2L57.1,58.2z M53.2,55.4c-0.4-0.3-0.4-0.8-0.2-1.1l0,0c0.3-0.4,0.8-0.4,1.1-0.2l0,0
		c0.4,0.3,0.4,0.8,0.2,1.1l0,0c-0.2,0.2-0.4,0.3-0.6,0.3l0,0C53.5,55.6,53.3,55.5,53.2,55.4L53.2,55.4z M49.3,52.6
		c-0.4-0.3-0.4-0.8-0.2-1.1l0,0c0.3-0.4,0.8-0.4,1.1-0.2l0,0v0c0.4,0.3,0.4,0.8,0.2,1.1l0,0c-0.2,0.2-0.4,0.3-0.6,0.3l0,0
		C49.6,52.7,49.4,52.7,49.3,52.6L49.3,52.6z M45.5,49.6c-0.3-0.3-0.4-0.8-0.1-1.1l0,0c0.3-0.3,0.8-0.4,1.1-0.1l0,0
		c0.3,0.3,0.4,0.8,0.1,1.1l0,0c-0.2,0.2-0.4,0.3-0.6,0.3l0,0C45.8,49.8,45.6,49.8,45.5,49.6L45.5,49.6z M41.7,46.6
		c-0.3-0.3-0.4-0.8-0.1-1.1l0,0c0.3-0.3,0.8-0.4,1.1-0.1l0,0c0.3,0.3,0.4,0.8,0.1,1.1l0,0c-0.2,0.2-0.4,0.3-0.6,0.3l0,0
		C42,46.8,41.9,46.7,41.7,46.6L41.7,46.6z M38,43.5C38,43.5,38,43.5,38,43.5L38,43.5c-0.3-0.3-0.4-0.8-0.1-1.1l0,0
		c0.3-0.3,0.8-0.4,1.1-0.1l0,0c0.3,0.3,0.4,0.8,0.1,1.1l0,0c-0.2,0.2-0.4,0.3-0.6,0.3l0,0C38.4,43.7,38.2,43.7,38,43.5L38,43.5z
		 M34.4,40.3c-0.3-0.3-0.4-0.8-0.1-1.1l0,0c0.3-0.3,0.8-0.4,1.1-0.1l0,0h0c0.3,0.3,0.4,0.8,0.1,1.1l0,0c-0.2,0.2-0.4,0.3-0.6,0.3
		l0,0C34.8,40.5,34.6,40.5,34.4,40.3L34.4,40.3z M30.9,37.1c-0.3-0.3-0.3-0.8,0-1.1l0,0c0.3-0.3,0.8-0.3,1.1,0l0,0
		c0.3,0.3,0.3,0.8,0,1.1l0,0c-0.2,0.2-0.4,0.3-0.6,0.3l0,0C31.2,37.3,31,37.2,30.9,37.1L30.9,37.1z M27.4,33.7
		C27.4,33.7,27.4,33.7,27.4,33.7L27.4,33.7c-0.3-0.3-0.3-0.8,0-1.1l0,0c0.3-0.3,0.8-0.3,1.1,0l0,0h0c0.3,0.3,0.3,0.8,0,1.1l0,0
		C28.4,33.9,28.2,34,28,34l0,0C27.8,34,27.6,33.9,27.4,33.7L27.4,33.7z M24,30.3C24,30.3,24,30.3,24,30.3L24,30.3
		c-0.3-0.3-0.3-0.8,0-1.1l0,0c0.3-0.3,0.8-0.3,1.1,0l0,0c0.3,0.3,0.3,0.8,0,1.1l0,0c-0.2,0.1-0.4,0.2-0.6,0.2l0,0
		C24.4,30.5,24.2,30.5,24,30.3L24,30.3z M20.7,26.8c-0.3-0.3-0.3-0.8,0-1.1l0,0c0.3-0.3,0.8-0.3,1.1,0l0,0c0.3,0.3,0.3,0.8,0,1.1
		l0,0C21.7,27,21.5,27,21.3,27l0,0C21.1,27,20.9,27,20.7,26.8L20.7,26.8z M17.5,23.2c-0.3-0.3-0.3-0.8,0.1-1.1l0,0
		c0.3-0.3,0.8-0.3,1.1,0.1l0,0c0.3,0.3,0.3,0.8-0.1,1.1l0,0c-0.2,0.1-0.3,0.2-0.5,0.2l0,0C17.9,23.5,17.6,23.4,17.5,23.2L17.5,23.2z
		 M14.3,19.5C14.3,19.5,14.3,19.5,14.3,19.5L14.3,19.5c-0.3-0.3-0.2-0.8,0.1-1.1l0,0c0.3-0.3,0.8-0.2,1.1,0.1l0,0
		c0.3,0.3,0.2,0.8-0.1,1.1l0,0c-0.1,0.1-0.3,0.2-0.5,0.2l0,0C14.7,19.8,14.5,19.7,14.3,19.5L14.3,19.5z M11.3,15.7
		c-0.3-0.3-0.2-0.9,0.1-1.1l0,0c0.3-0.3,0.9-0.2,1.1,0.1l0,0c0.3,0.3,0.2,0.9-0.1,1.1l0,0C12.3,16,12.1,16,12,16l0,0
		C11.7,16,11.5,15.9,11.3,15.7L11.3,15.7z M8.4,11.9C8.4,11.9,8.4,11.9,8.4,11.9L8.4,11.9c-0.3-0.4-0.2-0.9,0.2-1.1l0,0
		c0.4-0.3,0.9-0.2,1.1,0.2l0,0c0.3,0.4,0.2,0.9-0.2,1.1l0,0c-0.1,0.1-0.3,0.2-0.5,0.2l0,0C8.8,12.2,8.6,12.1,8.4,11.9L8.4,11.9z
		 M5.6,8C5.3,7.6,5.4,7.1,5.8,6.8l0,0C6.2,6.6,6.7,6.7,6.9,7l0,0c0.3,0.4,0.2,0.9-0.2,1.1l0,0C6.6,8.3,6.4,8.3,6.2,8.3l0,0
		C6,8.3,5.7,8.2,5.6,8L5.6,8z"/>
	<path class="st0" d="M340.4,88.1c-0.2-0.2-0.2-0.4-0.2-0.6l0,0c0-0.2,0.1-0.4,0.2-0.6l0,0c0.1-0.1,0.4-0.2,0.6-0.2l0,0
		c0.2,0,0.4,0.1,0.6,0.2l0,0c0.2,0.1,0.2,0.4,0.2,0.6l0,0c0,0.2-0.1,0.4-0.2,0.6l0,0c-0.2,0.2-0.4,0.2-0.6,0.2l0,0
		C340.7,88.4,340.5,88.3,340.4,88.1L340.4,88.1z M3.1,4.2C2.9,4,2.8,3.8,2.8,3.6l0,0c0-0.2,0.1-0.4,0.2-0.6l0,0
		c0.1-0.2,0.4-0.2,0.6-0.2l0,0c0.2,0,0.4,0.1,0.6,0.2l0,0c0.1,0.1,0.2,0.4,0.2,0.6l0,0c0,0.2-0.1,0.4-0.2,0.6l0,0
		C4,4.4,3.8,4.4,3.6,4.4l0,0C3.4,4.4,3.2,4.4,3.1,4.2L3.1,4.2z"/>
</g>
<g>
	<path class="st0" d="M351.5,76.1c-2.3,0-4.2,1.9-4.2,4.2s1.9,4.2,4.2,4.2c2.3,0,4.2-1.9,4.2-4.2S353.9,76.1,351.5,76.1"/>
	<path class="st0" d="M369.1,55.1c-5.2,0-9.4,4.2-9.4,9.4c0,5.2,4.2,9.4,9.4,9.4c5.2,0,9.4-4.2,9.4-9.4
		C378.5,59.3,374.3,55.1,369.1,55.1"/>
	<path class="st0" d="M396,24.6c-8.5,0-15.4,6.9-15.4,15.4c0,8.5,6.9,15.4,15.4,15.4c8.5,0,15.4-6.9,15.4-15.4
		C411.4,31.5,404.5,24.6,396,24.6"/>
</g>
<g>
	<path class="st1" d="M315.4,36.4l-2.8,8.3h1.1l0.7-2.3h3.2l0.8,2.3h1.2l-2.9-8.3H315.4z M316.1,37.4L316.1,37.4L316.1,37.4
		L316.1,37.4z M314.8,41.5l1.3-3.9l1.3,3.9H314.8z"/>
	<path class="st1" d="M334.8,42.5l0.8,2.3h1.2l-2.9-8.3h-1.4l-2.8,8.3h1.1l0.7-2.3H334.8z M333.2,37.4L333.2,37.4L333.2,37.4
		L333.2,37.4z M333.2,37.6l1.3,3.9h-2.6L333.2,37.6z"/>
	<polygon class="st1" points="353.7,43.7 349.4,43.7 349.4,40.9 352.7,40.9 352.7,39.9 349.4,39.9 349.4,37.5 353.7,37.5 
		353.7,36.5 348.2,36.5 348.2,44.8 353.7,44.8 	"/>
	<rect x="367.9" y="36.5" class="st1" width="1.2" height="8.3"/>
	<polygon class="st1" points="361.2,43.2 363.2,37.8 363.3,38.7 363.9,44.8 365,44.8 364.1,36.5 362.6,36.5 360.6,41.6 358.7,36.5 
		357.2,36.5 356.3,44.8 357.4,44.8 358,38.7 358.1,37.8 360.1,43.2 	"/>
	<path class="st1" d="M344.4,44.1c0.5-0.4,0.7-1.1,0.7-2.1v-2.9c0-0.9-0.2-1.6-0.7-2c-0.5-0.4-1.1-0.6-1.9-0.6H339v8.3h3.4
		C343.3,44.8,343.9,44.6,344.4,44.1 M340.2,43.8v-6.3h2.2c1.1,0,1.5,0.5,1.5,1.7V42c0,1.3-0.4,1.7-1.5,1.7H340.2z"/>
	<polygon class="st1" points="268.7,39.9 264.6,39.9 264.6,36.5 263.5,36.5 263.5,44.8 264.6,44.8 264.6,40.9 268.7,40.9 
		268.7,44.8 269.9,44.8 269.9,36.5 268.7,36.5 	"/>
	<polygon class="st1" points="275.4,43.2 275.4,43.4 275.3,43.3 273.2,36.5 272,36.5 274.7,44.8 275.9,44.8 278.8,36.5 277.7,36.5 	
		"/>
	<polygon class="st1" points="300.3,43.2 300.3,43.4 300.2,43.3 298.1,36.5 296.9,36.5 299.6,44.8 300.8,44.8 303.7,36.5 
		302.5,36.5 	"/>
	<path class="st1" d="M309.1,40.3l-1.9-0.5c-0.6-0.2-0.9-0.3-0.9-0.7v-0.7c0-0.5,0.3-0.9,0.9-0.9h3.4v-0.6c0-0.3-0.3-0.4-0.7-0.4
		h-2.6c-0.8,0-1.3,0.3-1.6,0.6c-0.3,0.4-0.5,0.7-0.5,1.3v0.8c0,1,0.6,1.4,1.7,1.7l1.9,0.6c0.6,0.2,0.8,0.3,0.8,0.8v0.3
		c0,0.7-0.4,1.3-1.1,1.3h-3.4v0.6c0,0.3,0.2,0.4,0.5,0.4h2.9c0.8,0,1.3-0.2,1.6-0.5c0.3-0.3,0.6-0.8,0.6-1.7V42
		C310.9,40.9,310.1,40.6,309.1,40.3"/>
	<polygon class="st1" points="280.9,44.8 286.3,44.8 286.3,43.7 282,43.7 282,40.9 285.4,40.9 285.4,39.9 282,39.9 282,37.5 
		286.3,37.5 286.3,36.5 280.9,36.5 	"/>
	<path class="st1" d="M293,41.5c1,0,1.8-0.6,1.8-1.8v-1.3c0-0.6-0.2-1.1-0.5-1.4c-0.3-0.3-0.9-0.4-1.5-0.4H289v8.3h1.2v-3.3h1.4
		l2.2,3.3h1.4L293,41.5L293,41.5z M290.2,40.5v-3l2.3,0c1,0,1.2,0.1,1.2,0.9v1.1c0,0.8-0.2,1-1.1,1H290.2z"/>
	<polygon class="st1" points="246.4,44.8 251.8,44.8 251.8,43.7 247.5,43.7 247.5,40.9 250.9,40.9 250.9,39.9 247.5,39.9 
		247.5,37.5 251.8,37.5 251.8,36.5 246.4,36.5 	"/>
	<path class="st1" d="M258.5,41.5c1,0,1.8-0.6,1.8-1.8v-1.3c0-0.6-0.2-1.1-0.5-1.4c-0.3-0.3-0.9-0.4-1.5-0.4h-3.8v8.3h1.2v-3.3h1.4
		l2.2,3.3h1.4L258.5,41.5L258.5,41.5z M255.7,40.5v-3l2.3,0c1,0,1.2,0.1,1.2,0.9v1.1c0,0.8-0.2,1-1.1,1H255.7z"/>
	<polygon class="st1" points="326.9,44.8 328.2,44.8 325.2,40.4 328.1,36.5 326.7,36.5 324.1,40 323.2,40 323.2,36.5 322,36.5 
		322,44.8 323.2,44.8 323.2,41 324.2,41 	"/>
</g>
<g>
	<path class="st1" d="M314,58.4l0.8,2.3h1.2l-2.9-8.3h-1.4l-2.8,8.3h1.1l0.7-2.3H314z M312.4,53.4L312.4,53.4L312.4,53.4L312.4,53.4
		z M312.3,53.6l1.3,3.9h-2.6L312.3,53.6z"/>
	<path class="st1" d="M305.5,58.4l0.8,2.3h1.2l-2.9-8.3h-1.4l-2.8,8.3h1.1l0.7-2.3H305.5z M303.9,53.4L303.9,53.4L303.9,53.4
		L303.9,53.4z M303.8,53.6l1.3,3.9h-2.6L303.8,53.6z"/>
	<path class="st1" d="M349.9,56.3l-1.9-0.5c-0.6-0.2-0.9-0.3-0.9-0.7v-0.7c0-0.5,0.3-0.9,0.9-0.9h3.4c0,0,0-0.3,0-0.6
		s-0.3-0.4-0.7-0.4h-2.6c-0.8,0-1.3,0.3-1.6,0.6c-0.3,0.4-0.5,0.7-0.5,1.3v0.8c0,1,0.6,1.4,1.7,1.7l1.9,0.6c0.6,0.2,0.8,0.3,0.8,0.8
		v0.3c0,0.7-0.4,1.3-1.1,1.3H346c0,0,0,0.4,0,0.6c0,0.3,0.2,0.4,0.5,0.4h2.9c0.8,0,1.3-0.2,1.6-0.5c0.3-0.3,0.6-0.8,0.6-1.7V58
		C351.7,56.9,351,56.6,349.9,56.3z"/>
	<path class="st1" d="M341.9,58.4c0,0.9-0.4,1.5-1.3,1.5h-1.3c-0.9,0-1.3-0.6-1.3-1.5v-5.9h-1.2v5.9c0,0.8,0.2,1.5,0.7,1.9
		c0.4,0.4,1.1,0.6,1.8,0.6h1.2c0.8,0,1.4-0.2,1.8-0.6c0.4-0.4,0.7-1.1,0.7-1.9v-5.9h-1.1V58.4z"/>
	<polygon class="st1" points="332.3,55.9 328.3,55.9 328.3,52.5 327.1,52.5 327.1,60.7 328.3,60.7 328.3,56.9 332.3,56.9 
		332.3,60.7 333.5,60.7 333.5,52.5 332.3,52.5 	"/>
	<path class="st1" d="M322.2,57.4c1,0,1.8-0.6,1.8-1.8v-1.3c0-0.6-0.2-1.1-0.5-1.4c-0.3-0.3-0.9-0.4-1.5-0.4h-3.8v8.3h1.2v-3.3h1.4
		l2.2,3.3h1.4L322.2,57.4L322.2,57.4z M319.3,56.5v-3l2.3,0c1,0,1.2,0.1,1.2,0.9v1.1c0,0.8-0.2,1-1.1,1H319.3z"/>
</g>
</svg>
