<svg id="Layer_1" data-name="Layer 1" xmlns="http://www.w3.org/2000/svg" viewBox="0 0 852.04 199.78"><defs><style>.cls-1{fill:#e9483c;}.cls-2{fill:#2cbdef;}.cls-3{fill:#28bdef;}.cls-4{fill:#56b25e;}.cls-5{fill:#fec803;}.cls-6{fill:#fff;}.cls-7{fill:#312783;}</style></defs><title>How-R-you-Logo-text</title><rect class="cls-1" x="57.52" y="57.69" width="85.04" height="85.04" rx="14.17" ry="14.17"/><rect class="cls-2" y="57.69" width="56.69" height="28.35" rx="14.17" ry="14.17"/><rect class="cls-3" x="143.38" y="57.69" width="56.69" height="28.35" rx="14.17" ry="14.17"/><rect class="cls-4" x="57.52" y="143.09" width="28.35" height="56.69" rx="14.17" ry="14.17"/><rect class="cls-4" x="114.21" y="143.09" width="28.35" height="56.69" rx="14.17" ry="14.17"/><circle class="cls-5" cx="100.04" cy="28.35" r="28.35"/><path class="cls-6" d="M123.64,82.37a16.35,16.35,0,0,0-23-.09h0a16.3,16.3,0,0,0-23.06,23.06h0l-.1.1,23.06,23.06.1-.1h0l23.06-23.06h0A16.35,16.35,0,0,0,123.64,82.37Z" transform="translate(-0.59 -1.06)"/><path class="cls-7" d="M304.51,139H284.24V103.2H256.65V139H236.38V58.27h20.27V87.81h27.59V58.27h20.27Z" transform="translate(-0.59 -1.06)"/><path class="cls-7" d="M378.55,108.57q0,15-8.21,23.66t-23.22,8.64q-14.91,0-23.17-8.64t-8.27-23.66q0-15.18,8.27-23.77t23.17-8.59q15,0,23.2,8.64T378.55,108.57Zm-19.46.11a38.28,38.28,0,0,0-.89-9,16.64,16.64,0,0,0-2.47-5.77,9.28,9.28,0,0,0-3.79-3.17,12.3,12.3,0,0,0-4.82-.89,12.86,12.86,0,0,0-4.61.79,9,9,0,0,0-3.79,3,16.36,16.36,0,0,0-2.6,5.8,37,37,0,0,0-1,9.27,35.91,35.91,0,0,0,.92,9,17.16,17.16,0,0,0,2.38,5.5,9,9,0,0,0,3.79,3.09,12.67,12.67,0,0,0,5,1,12.07,12.07,0,0,0,4.63-1,8.59,8.59,0,0,0,3.77-2.93,16.9,16.9,0,0,0,2.55-5.61A37.23,37.23,0,0,0,359.09,108.68Z" transform="translate(-0.59 -1.06)"/><path class="cls-7" d="M479.31,78.11,461.53,139H441.37L430.69,99.62,420,139H399.8L382.18,78.11h19.95l9.32,40.27L423,78.11h16.75l10.89,40.27,9.16-40.27Z" transform="translate(-0.59 -1.06)"/><path class="cls-7" d="M522,110.9H486.08V95.83H522Z" transform="translate(-0.59 -1.06)"/><path class="cls-7" d="M611,139H586.24l-22.49-29.59h-7.26V139H536.32V58.27h32.47a71.37,71.37,0,0,1,11.71.84,25,25,0,0,1,9.21,3.5,21.12,21.12,0,0,1,6.88,7,20.78,20.78,0,0,1,2.55,10.81q0,9.27-4.17,15a29.38,29.38,0,0,1-11.17,9.19ZM578.33,83a11,11,0,0,0-1.17-5.23,7.68,7.68,0,0,0-3.87-3.39,14,14,0,0,0-4.23-1q-2.33-.22-5.8-.22h-6.77V94.85h5.8a42.57,42.57,0,0,0,7.18-.51,10.67,10.67,0,0,0,5-2.2,9.49,9.49,0,0,0,2.9-3.63A13.64,13.64,0,0,0,578.33,83Z" transform="translate(-0.59 -1.06)"/><path class="cls-7" d="M650.47,110.9H614.53V95.83h35.93Z" transform="translate(-0.59 -1.06)"/><path class="cls-7" d="M720.49,78.11l-30.73,83.2H669.38l9.21-23.79-22.33-59.4h19.95L689,116.26l12-38.16Z" transform="translate(-0.59 -1.06)"/><path class="cls-7" d="M786,108.57q0,15-8.21,23.66t-23.22,8.64q-14.91,0-23.17-8.64t-8.27-23.66q0-15.18,8.27-23.77t23.17-8.59q15,0,23.2,8.64T786,108.57Zm-19.46.11a38.28,38.28,0,0,0-.89-9,16.64,16.64,0,0,0-2.47-5.77,9.28,9.28,0,0,0-3.79-3.17,12.3,12.3,0,0,0-4.82-.89,12.86,12.86,0,0,0-4.61.79,9,9,0,0,0-3.79,3,16.36,16.36,0,0,0-2.6,5.8,37,37,0,0,0-1,9.27,35.91,35.91,0,0,0,.92,9,17.16,17.16,0,0,0,2.38,5.5,9,9,0,0,0,3.79,3.09,12.67,12.67,0,0,0,5,1,12.07,12.07,0,0,0,4.63-1,8.59,8.59,0,0,0,3.77-2.93,16.9,16.9,0,0,0,2.55-5.61A37.23,37.23,0,0,0,766.56,108.68Z" transform="translate(-0.59 -1.06)"/><path class="cls-7" d="M852.63,139h-19v-6.72a51.75,51.75,0,0,1-9.05,6.26,21,21,0,0,1-9.81,2.14q-9.05,0-14.12-5.72t-5.07-17.21V78.11h19.08V108.3q0,4.72.24,7.7a15.46,15.46,0,0,0,1.17,5,6,6,0,0,0,2.68,2.87,10.83,10.83,0,0,0,5.07,1,14.48,14.48,0,0,0,4.74-1,20.24,20.24,0,0,0,5.07-2.66V78.11h19Z" transform="translate(-0.59 -1.06)"/></svg>