<?xml version="1.0" encoding="utf-8"?>
<!-- Generator: Adobe Illustrator 19.2.1, SVG Export Plug-In . SVG Version: 6.00 Build 0)  -->
<svg version="1.1" id="Layer_1" xmlns="http://www.w3.org/2000/svg" xmlns:xlink="http://www.w3.org/1999/xlink" x="0px" y="0px"
	 viewBox="0 0 201.3 201.3" style="enable-background:new 0 0 201.3 201.3;" xml:space="preserve">
<style type="text/css">
	.st0{fill:#E9483C;}
	.st1{fill:#2CBDEF;}
	.st2{fill:#28BDEF;}
	.st3{fill:#56B25E;}
	.st4{fill:#FEC803;}
	.st5{fill:#FFFFFF;}
</style>
<g>
	<path class="st0" d="M129,143.8H72.3c-7.8,0-14.2-6.4-14.2-14.2V72.9c0-7.8,6.4-14.2,14.2-14.2H129c7.8,0,14.2,6.4,14.2,14.2v56.7
		C143.1,137.4,136.8,143.8,129,143.8z"/>
	<path class="st1" d="M43.1,87.1H14.8C7,87.1,0.6,80.7,0.6,72.9v0c0-7.8,6.4-14.2,14.2-14.2h28.3c7.8,0,14.2,6.4,14.2,14.2v0
		C57.3,80.7,50.9,87.1,43.1,87.1z"/>
	<path class="st2" d="M186.5,87.1h-28.3c-7.8,0-14.2-6.4-14.2-14.2v0c0-7.8,6.4-14.2,14.2-14.2h28.3c7.8,0,14.2,6.4,14.2,14.2v0
		C200.7,80.7,194.3,87.1,186.5,87.1z"/>
	<path class="st3" d="M72.3,200.8L72.3,200.8c-7.8,0-14.2-6.4-14.2-14.2v-28.3c0-7.8,6.4-14.2,14.2-14.2h0c7.8,0,14.2,6.4,14.2,14.2
		v28.3C86.5,194.5,80.1,200.8,72.3,200.8z"/>
	<path class="st3" d="M129,200.8L129,200.8c-7.8,0-14.2-6.4-14.2-14.2v-28.3c0-7.8,6.4-14.2,14.2-14.2h0c7.8,0,14.2,6.4,14.2,14.2
		v28.3C143.1,194.5,136.8,200.8,129,200.8z"/>
	<circle class="st4" cx="100.6" cy="29.4" r="28.3"/>
	<path class="st5" d="M123.6,82.4c-6.3-6.3-16.6-6.3-23-0.1l0,0c-6.3-6.3-16.7-6.3-23.1,0c-6.3,6.3-6.3,16.7,0,23.1l0,0l-0.1,0.1
		l23.1,23.1l0.1-0.1l0,0l23.1-23.1l0,0C130,99,129.9,88.7,123.6,82.4z"/>
</g>
</svg>
