<svg xmlns="http://www.w3.org/2000/svg" viewBox="0 0 1023 492.8" enable-background="new 0 0 1023 492.8"><g fill="#9B907B"><path d="M71.6 410.2c-9.4 0-15.1 1.6-19.3 3.3v52.4h-9.8v-63.5h8.9l.6 5.2c4.3-3.4 12.6-6.2 18.4-6.2 1.7 0 6.2.1 9.3.5v8.3h-8.1zM131 435.9h-34.9v11.5c0 7.7 3.1 11.7 12.5 11.7h29.2v4.6c-2.6 2.2-7.6 3.7-12.8 3.7h-16.6c-11.4 0-22-5.2-22-20.6v-23.7c0-17.8 10.7-22.1 24.5-22.1h5.6c12.3 0 23.1 3.8 23.1 20.8v12.7l-8.6 1.4zm-1-16.3c0-8.7-4.5-10.6-12.6-10.6h-8.7c-9.4 0-12.7 4.2-12.7 12v7.6h34v-9zM187.7 492.8h-14.9c-3.9 0-10.7-.4-13.9-2.9v-5.7h29.9c7.7 0 10.6-3.9 10.6-11.4v-14.3c-4.6 4.8-10.5 6-17 6h-8.7c-11 0-16.8-4.4-16.8-15.6v-30.2c0-11.8 7.8-17.7 19-17.7h9.4c5 0 11.6 2.2 14.8 6.2l1.3-4.8h7.7v69.6c.1 14.5-7.2 20.8-21.4 20.8zm11.8-79.1c-2.9-2-8.8-4.2-16.1-4.2h-9.2c-3.4 0-7.4 1.7-7.4 9v29.2c0 7.3 5.1 7.8 8.9 7.8h7.4c8.1 0 13.7-1.5 16.4-2.2v-39.6zM232.8 388.7v-12.2h9.8v12.2h-9.8zm0 77.2v-63.5h9.8v63.5h-9.8zM296 467.4h-12.2c-13.2 0-21.6-7-21.6-20.5v-25.4c0-13.6 8.4-20.5 21.6-20.5h12.2c13.4 0 20.9 8.1 20.9 21.2v23.9c0 13.2-7.4 21.3-20.9 21.3zm11.1-47c0-5.9-2.8-11.6-9.4-11.6h-15.9c-7.1 0-9.9 5.1-9.9 11.6v27.5c0 6.5 2.8 11.7 9.9 11.7h15.9c6.6 0 9.4-5.7 9.4-11.6v-27.6zM376.7 465.9v-49.6c0-5.2-4.3-6.6-8.2-6.6h-9.9c-6.7 0-12.2 1.1-14.7 1.8v54.3h-9.8v-63.5h9.3l.4 4.4c4.4-4.2 11.1-5.9 16.8-5.9h9.8c8.2 0 16 3.5 16 14.3v50.7h-9.7z"/></g><g fill="#483B05"><path d="M486.5 465.9v-49.6c0-5.2-4.3-6.6-8.2-6.6h-6.5c-6.3 0-12.1 1.1-14.7 1.8v54.3h-9.8v-49.6c0-5.2-4.3-6.6-8.2-6.6h-7.1c-5.7 0-10.5 1-13.9 1.8v54.3h-9.8v-63.5h9.3l.4 4.4c4.4-4.2 11-5.9 16.7-5.9h6.5c6.1 0 12 2 14.5 7.3 3.8-4.9 11.2-7.3 18.4-7.3h6.1c8.2 0 16 3.5 16 14.3v50.7h-9.7zM517.4 388.7v-12.2h9.8v12.2h-9.8zm0 77.2v-63.5h9.8v63.5h-9.8zM587.9 465.9l-.9-4.6c-4.5 4.6-11 6.1-17.1 6.1h-10.1c-7 0-15.4-3.2-15.4-14.7v-33.9c0-11.6 7.6-17.8 18.2-17.8h9.2c5.7 0 12 2.1 15.1 5.6v-30h9.8v89.4h-8.8zm-.9-52.2c-2.9-2-8.8-4.2-16.1-4.2h-9.2c-3.4 0-7.4 1.7-7.4 9v32.2c0 7.3 5.1 7.8 8.9 7.8h7.4c8.1 0 13.7-1.5 16.4-2.2v-42.6zM636 467.4c-10.9 0-17.5-2.9-17.5-13.4v-42.5h-11.2v-7.3h11.2v-17.7l9.8-1.3v19h22v7.3h-22v40.9c0 3.1.2 7.1 6 7.1h16v5.5c-2.9 1.5-10 2.4-14.3 2.4z"/></g><g fill="#9B907B"><path d="M660.3 492.8c-1.2 0-5.9-.2-9.5-1.2v-6.8h7.8c8.4 0 11.7-1.6 11.7-12.6v-69.7h9.8v70.2c0 15.2-7.7 20.1-19.8 20.1zm10-104.1v-12.2h9.8v12.2h-9.8zM718.2 491.8h-9.3l10-26.9-24.9-62.5h10.3l19.4 49.9h.4l17.3-49.9h9.5l-32.7 89.4zM763.5 465.9v-89.4h9.8v89.4h-9.8zM795.4 465.9v-89.4h9.8v89.4h-9.8zM867 465.9c-.2-2.1-.2-2.2-.7-6.1h-.4c-2.1 4-6.3 7.6-14 7.6h-12.7c-9.4 0-16.4-5.5-16.4-14.4v-7.3c0-12.1 7.1-17.1 18.1-17.1h23.7v-10.7c0-6.8-3.8-8.1-10.1-8.1h-27.3v-6c3.5-2.2 10.7-2.8 15-2.8h13.6c10.1 0 18.7 3.5 18.7 16v28c0 9.8.5 14.8 1.2 21h-8.7zm-2.4-30h-23c-5.6 0-9 2-9 8.2v7.7c0 5.5 4 7.6 8.7 7.6h12.9c5.2 0 10.4-2.3 10.4-10.4v-13.1zM938.2 465.9v-49.6c0-5.2-4.3-6.6-8.2-6.6h-9.9c-6.7 0-12.2 1.1-14.7 1.8v54.3h-9.8v-63.5h9.3l.4 4.4c4.4-4.2 11.1-5.9 16.8-5.9h9.8c8.2 0 16 3.5 16 14.3v50.7h-9.7zM1010.2 465.9l-.9-4.6c-4.5 4.6-11 6.1-17.1 6.1h-10.1c-7 0-15.4-3.2-15.4-14.7v-33.9c0-11.6 7.6-17.8 18.2-17.8h9.2c5.7 0 12 2.1 15.1 5.6v-30h9.8v89.4h-8.8zm-1-52.2c-2.9-2-8.8-4.2-16.1-4.2h-9.1c-3.4 0-7.4 1.7-7.4 9v32.2c0 7.3 5.1 7.8 8.9 7.8h7.4c8.1 0 13.7-1.5 16.4-2.2v-42.6z"/></g><path fill="#A50343" d="M153.1 84.6c-13.8 0-27.4.1-40.3.2-40.8.3-87 .8-106.9 3.4-3.4.4-4.6 3.1-4.9 5.9-.3 2.9-1 15.3-1 18.2.1 2.8 1.7 5.3 4.8 5.9 2.6.5 38.7 7.2 38.7 30v184.4c0 2.7 1.1 5.8 5.7 5.9 9 .4 19.8.7 30.4.7 9.7 0 19.3-.2 27.2-.7 4.6-.2 5.9-3.3 5.9-6v-189.3c0-3.5 2.7-5 5.8-5.4 1.9-.2 9.1-.5 18.2-.5 6.7 0 14.5.1 21.8.5 17.4.9 25.1 7.9 25.1 30.3v164.5c0 2.7.7 5.7 5.9 5.9 9.9.4 19.3.7 29 .7 9.2 0 18.6-.2 29-.7 5-.2 5.9-3.2 5.9-5.9v-189.2c0-3.7 2.9-5.3 6-5.7 2.4-.3 5.8-.5 11.2-.5 5.3 0 12.7.2 22.9.5 21 .7 32.2 6.9 32.2 31.6v129.2c0 26 2.3 39.2 31.7 40.1 7 .2 12.8.3 17.5.3 10.2 0 15.6-.4 17.8-.6 3-.3 5.2-2.3 5.4-5.8.2-3.4 0-88.5 0-143.9 0-88.8-2.2-97.1-105-101.7-40-1.6-91.6-2.3-140-2.3M474 87.7c-18.9 0-37 .6-48.4 1.7-4 .6-4.7 3.3-4.9 6.2-.2 2.9-1 15.1-.9 17.9.1 2.5 1.7 5.1 4.8 5.9 2.6.7 38.7 8.3 38.7 30.8v182.5c0 2.7 1.7 5.4 5.9 5.9 9.9.6 19.9.9 30.2.9s20.8-.3 31.3-.9c4-.2 5.4-3.2 5.4-5.9v-237c0-2.7-1.5-5.3-6.3-6-14.3-1.4-35.5-2-55.8-2M858 305.9c-23.7-7.3-38.4-4.2-39.8-25.9-1.4-21.7-.5-221.4-2-252.4-.8-17.1 2.5-17.8-34.4-24.6-38.3-7-34.2-1.5-34.8 11.5-.7 14.3-1 56.1-1.5 63.9-.3 5.6-1.9 7.5-7.1 7.2-17.8-.8-38.4-1.3-54-1.3-43.2 0-104.1 14.4-104.1 132.9 0 122 72 120.2 99.6 122.1 19.2 1.3 112.6 2.5 174.5-.4 4.1-.4 5.3-2.5 6.1-6 .8-3.4 1.7-18.8 1.6-21.5-.2-2.7-.9-4.5-4.1-5.5m-112.4-21.2c0 8.6-6.2 9-11.5 9.6-5.3.6-7.6.6-25.5.4-33.6 0-58.2-8.6-58.2-80.8s17-81.8 57.1-81.8c0 0 16.3-.1 26.7 1.1 6.1.8 10.6 2.4 10.9 8.9 1.2 32.2.6 89.6.5 142.6m271.2 25.5c-9.3-2.4-15.8-2.3-38.5-7.7-27.3-6.6-26.3-11.3-27.5-39.9-.9-21.2-1.9-80.9-.8-111.3.8-24.6 44-29 47.1-29.8 3.1-.8 4.6-2.7 4.8-5.8.3-3.1-.6-15.8-1.1-18.9-.4-3.1-2.4-4.5-4.9-4.9-8.7-1.3-31.6-2.7-44.4-3.5-4.4-.3-6.4-3.2-7.1-5.8-.9-3.4-2.7-14-5.5-30.8-2.3-13.8-1.5-19.5-18.7-23-39.8-7.9-39.4-4.2-39.6 8-.2 12.2-1.8 198.1-1.8 228.5 0 56.2 10.5 75 72.4 75 13.4 0 42.4-1.1 56.7-2.2 13.7-1.1 13.5-1.4 14.7-15.7.8-9 1.1-10.4-5.8-12.2"/></svg>