<?xml version="1.0" encoding="utf-8"?>
<!-- Generator: Adobe Illustrator 20.1.0, SVG Export Plug-In . SVG Version: 6.00 Build 0)  -->
<svg version="1.1" id="Lag_1" xmlns="http://www.w3.org/2000/svg" xmlns:xlink="http://www.w3.org/1999/xlink" x="0px" y="0px"
	 viewBox="0 0 1284 98" style="enable-background:new 0 0 1284 98;" xml:space="preserve">
<style type="text/css">
	.st0{display:none;}
	.st1{display:inline;fill:none;}
	.st2{fill:#84ADB7;}
	.st3{fill:#757E89;}
</style>
<g id="Layer_2" class="st0">
	<rect x="1085" y="10" class="st1" width="175.7" height="66.4"/>
</g>
<g id="Layer_4">
	<g>
		<circle class="st2" cx="1201.8" cy="84.4" r="5"/>
		<circle class="st2" cx="1222.9" cy="65.5" r="11.3"/>
		<circle class="st2" cx="1255.2" cy="36.2" r="18.5"/>
	</g>
	<g>
		<path class="st3" d="M1158,31.9l-3.4,10h1.3l0.8-2.8h4l1,2.8h1.4l-3.5-10C1159.6,31.9,1158,31.9,1158,31.9z M1158.8,33.1
			L1158.8,33.1L1158.8,33.1L1158.8,33.1z M1157.2,37.9l1.6-4.7l1.6,4.7H1157.2z"/>
		<path class="st3" d="M1181.2,39.1l1,2.8h1.4l-3.5-10h-1.7l-3.4,10h1.3l0.8-2.8H1181.2z M1179.3,33.1L1179.3,33.1L1179.3,33.1
			L1179.3,33.1z M1179.3,33.2l1.6,4.7h-3.1L1179.3,33.2z"/>
		<polygon class="st3" points="1203.9,40.6 1198.8,40.6 1198.8,37.3 1202.8,37.3 1202.8,36.1 1198.8,36.1 1198.8,33.2 1203.9,33.2 
			1203.9,32 1197.3,32 1197.3,41.8 1203.9,41.8 		"/>
		<rect x="1221" y="32" class="st3" width="1.4" height="10"/>
		<polygon class="st3" points="1212.9,40 1215.3,33.6 1215.4,34.6 1216.2,41.8 1217.5,41.8 1216.5,32 1214.6,32 1212.3,38.1 
			1210,32 1208.1,32 1207.2,41.8 1208.5,41.8 1209.1,34.6 1209.2,33.6 1211.7,40 		"/>
		<path class="st3" d="M1192.8,41.1c0.6-0.5,0.8-1.3,0.8-2.5v-3.5c0-1.1-0.2-1.9-0.8-2.4s-1.3-0.7-2.3-0.7h-4.2v10h4.1
			C1191.4,41.8,1192.3,41.6,1192.8,41.1z M1187.7,40.6v-7.6h2.6c1.3,0,1.8,0.6,1.8,2v3.4c0,1.6-0.5,2-1.8,2h-2.6V40.6z"/>
		<polygon class="st3" points="1101.9,36.1 1097,36.1 1097,32 1095.7,32 1095.7,41.8 1097,41.8 1097,37.3 1101.9,37.3 1101.9,41.8 
			1103.4,41.8 1103.4,32 1101.9,32 		"/>
		<polygon class="st3" points="1110,40 1110,40.3 1110,40 1107.3,32 1105.9,32 1109.2,41.8 1110.6,41.8 1114,32 1112.7,32 		"/>
		<polygon class="st3" points="1139.8,40 1139.8,40.3 1139.8,40 1137.2,32 1135.8,32 1139,41.8 1140.4,41.8 1143.9,32 1142.6,32 		
			"/>
		<path class="st3" d="M1150.4,36.6l-2.3-0.6c-0.7-0.2-1.1-0.4-1.1-0.8v-0.8c0-0.6,0.4-1.1,1.1-1.1h4.1c0,0,0-0.4,0-0.7
			c0-0.4-0.4-0.5-0.8-0.5h-3.1c-1,0-1.6,0.4-1.9,0.7c-0.4,0.5-0.6,0.8-0.6,1.6v1c0,1.2,0.7,1.7,2,2l2.3,0.7c0.7,0.2,1,0.4,1,1v0.4
			c0,0.8-0.5,1.6-1.3,1.6h-4.1c0,0,0,0.5,0,0.7c0,0.4,0.2,0.5,0.6,0.5h3.5c1,0,1.6-0.2,1.9-0.6s0.7-1,0.7-2v-0.6
			C1152.6,37.3,1151.7,36.9,1150.4,36.6z"/>
		<polygon class="st3" points="1116.6,41.8 1123,41.8 1123,40.6 1118,40.6 1118,37.3 1122,37.3 1122,36.1 1118,36.1 1118,33.2 
			1123,33.2 1123,32 1116.6,32 		"/>
		<path class="st3" d="M1131.1,37.9c1.2,0,2.2-0.7,2.2-2.2v-1.6c0-0.7-0.2-1.3-0.6-1.7c-0.4-0.4-1.1-0.5-1.8-0.5h-4.6v10h1.4v-4h1.7
			l2.6,4h1.7L1131.1,37.9L1131.1,37.9z M1127.7,36.7v-3.6h2.8c1.2,0,1.4,0.1,1.4,1.1v1.3c0,1-0.2,1.2-1.3,1.2H1127.7z"/>
		<polygon class="st3" points="1075.2,41.8 1081.6,41.8 1081.6,40.6 1076.6,40.6 1076.6,37.3 1080.6,37.3 1080.6,36.1 1076.6,36.1 
			1076.6,33.2 1081.6,33.2 1081.6,32 1075.2,32 		"/>
		<path class="st3" d="M1089.7,37.9c1.2,0,2.2-0.7,2.2-2.2v-1.6c0-0.7-0.2-1.3-0.6-1.7c-0.4-0.4-1.1-0.5-1.8-0.5h-4.6v10h1.4v-4h1.7
			l2.6,4h1.7L1089.7,37.9L1089.7,37.9z M1086.3,36.7v-3.6h2.8c1.2,0,1.4,0.1,1.4,1.1v1.3c0,1-0.2,1.2-1.3,1.2H1086.3z"/>
		<polygon class="st3" points="1171.8,41.8 1173.3,41.8 1169.8,36.7 1173.2,32 1171.5,32 1168.5,36.2 1167.3,36.2 1167.3,32 
			1165.9,32 1165.9,41.8 1167.3,41.8 1167.3,37.4 1168.5,37.4 		"/>
	</g>
	<g>
		<path class="st3" d="M1156.6,58.3l1,2.8h1.4l-3.5-10h-1.7l-3.4,10h1.3l0.8-2.8H1156.6z M1154.7,52.2L1154.7,52.2L1154.7,52.2
			L1154.7,52.2z M1154.7,52.4l1.6,4.7h-3.1L1154.7,52.4z"/>
		<path class="st3" d="M1146.4,58.3l1,2.8h1.4l-3.5-10h-1.7l-3.4,10h1.3l0.8-2.8H1146.4z M1144.5,52.2L1144.5,52.2L1144.5,52.2
			L1144.5,52.2z M1144.5,52.4l1.6,4.7h-3.1L1144.5,52.4z"/>
		<path class="st3" d="M1199.8,55.6l-2.3-0.6c-0.7-0.2-1.1-0.4-1.1-0.8v-0.8c0-0.6,0.4-1,1.1-1.1h4.1c0,0,0-0.4,0-0.7
			c0-0.4-0.4-0.5-0.8-0.5h-3.1c-1,0-1.6,0.4-1.9,0.7c-0.4,0.5-0.6,0.8-0.6,1.6v1c0,1.2,0.7,1.7,2,2l2.3,0.7c0.7,0.2,1,0.4,1,1v0.4
			c0,0.8-0.5,1.6-1.3,1.6h-4.1c0,0,0,0.5,0,0.7c0,0.4,0.2,0.5,0.6,0.5h3.5c1,0,1.6-0.2,1.9-0.6c0.4-0.4,0.7-1,0.7-2v-0.8
			C1201.9,56.4,1201,56,1199.8,55.6z"/>
		<path class="st3" d="M1190.1,58.2c0,1.1-0.5,1.8-1.6,1.8h-1.6c-1.1,0-1.6-0.7-1.6-1.8v-7.1h-1.4v7.1c0,1,0.2,1.8,0.8,2.3
			c0.5,0.5,1.3,0.7,2.2,0.7h1.4c1,0,1.7-0.2,2.2-0.7s0.8-1.3,0.8-2.3v-7.1h-1.3C1190.1,51.1,1190.1,58.2,1190.1,58.2z"/>
		<polygon class="st3" points="1178.7,55.2 1173.8,55.2 1173.8,51.1 1172.5,51.1 1172.5,61 1173.8,61 1173.8,56.4 1178.7,56.4 
			1178.7,61 1180,61 1180,51.1 1178.7,51.1 		"/>
		<path class="st3" d="M1166.5,57.1c1.2,0,2.2-0.7,2.2-2.2v-1.6c0-0.7-0.2-1.3-0.6-1.7c-0.4-0.4-1.1-0.5-1.8-0.5h-4.6v10h1.4v-4h1.7
			l2.6,4h1.7L1166.5,57.1L1166.5,57.1z M1163.1,55.9v-3.6h2.8c1.2,0,1.4,0.1,1.4,1.1v1.3c0,1-0.2,1.2-1.3,1.2H1163.1z"/>
	</g>
</g>
<title>How-R-you-Logo-text</title>
</svg>
